<svg width="37" height="41" viewBox="0 0 37 41" fill="none" xmlns="http://www.w3.org/2000/svg">
<path d="M31.577 9.42459C31.3443 9.19259 30.9668 9.19259 30.7341 9.42459C30.5014 9.65537 30.5014 10.0353 30.7341 10.2685C31.1386 10.6718 31.5321 11.1057 31.8968 11.5513C32.014 11.6968 32.1853 11.7692 32.356 11.7692C32.4904 11.7692 32.6249 11.7244 32.7366 11.6336C32.9913 11.4236 33.0282 11.0499 32.8207 10.7921C32.4315 10.3207 32.014 9.85976 31.577 9.42459Z" fill="black"/>
<path d="M26.6898 37.7519C25.6984 38.2853 24.6456 38.7254 23.5645 39.0556C23.2459 39.1489 23.0697 39.4864 23.1704 39.8019C23.2502 40.0579 23.486 40.2236 23.7407 40.2236C23.7966 40.2236 23.8561 40.215 23.9145 40.1972C25.071 39.843 26.1938 39.3735 27.254 38.7996C27.5425 38.6474 27.6512 38.2847 27.4946 37.9944C27.3399 37.7047 26.9814 37.5979 26.6898 37.7519Z" fill="black"/>
<path d="M35.07 17.4944C35.1455 17.7535 35.3836 17.9198 35.6384 17.9198C35.6949 17.9198 35.7538 17.9112 35.8091 17.8934C36.1258 17.7995 36.3051 17.4638 36.2081 17.1501C35.8606 15.995 35.3972 14.8693 34.8275 13.8026C34.6715 13.5098 34.3063 13.4037 34.0196 13.5577C33.728 13.7118 33.6193 14.0727 33.7759 14.363C34.3075 15.3653 34.7415 16.4167 35.07 17.4944Z" fill="black"/>
<path d="M36.9128 20.6996C36.8815 20.3718 36.5881 20.1441 36.2603 20.165C35.9331 20.1956 35.6918 20.4896 35.7256 20.8168C35.779 21.3698 35.8066 21.9357 35.8066 22.5071C35.8066 23.0681 35.7771 23.6371 35.7225 24.2054C35.6918 24.5313 35.9331 24.8259 36.2603 24.8566C36.2799 24.8578 36.2971 24.8578 36.318 24.8578C36.6218 24.8578 36.8821 24.6283 36.9116 24.319C36.9693 23.7175 37 23.1061 37 22.5077C36.9963 21.8976 36.9681 21.2912 36.9128 20.6996Z" fill="black"/>
<path d="M31.8906 33.4635C31.1755 34.3369 30.3701 35.1434 29.499 35.8615C29.2442 36.0714 29.2074 36.4483 29.4173 36.703C29.5352 36.8466 29.7046 36.9184 29.8753 36.9184C30.0115 36.9184 30.1454 36.8755 30.2577 36.7809C31.1865 36.0137 32.0472 35.1502 32.8102 34.2191C33.019 33.9625 32.9809 33.5893 32.7274 33.3788C32.4732 33.1707 32.0981 33.21 31.8906 33.4635Z" fill="black"/>
<path d="M35.8091 27.1239C35.4978 27.0318 35.162 27.208 35.0638 27.521C34.7366 28.5994 34.305 29.6508 33.7704 30.6494C33.6163 30.9409 33.7255 31.3012 34.0141 31.4546C34.1037 31.5031 34.2019 31.5283 34.2965 31.5283C34.507 31.5283 34.7139 31.4135 34.8207 31.2104C35.3922 30.1436 35.8594 29.0198 36.2069 27.8647C36.3014 27.5529 36.1252 27.2184 35.8091 27.1239Z" fill="black"/>
<path d="M20.2293 39.7221C19.6547 39.7792 19.0685 39.8087 18.4975 39.8087C8.95656 39.8087 1.19339 32.0469 1.19339 22.5083C1.19339 13.0158 8.87614 5.28901 18.3533 5.21168L14.8805 8.68561C14.6454 8.91946 14.6454 9.29754 14.8805 9.52955C14.9953 9.64678 15.15 9.7057 15.3004 9.7057C15.4527 9.7057 15.6062 9.64678 15.7234 9.52955L20.4024 4.85201L15.7228 0.174464C15.4914 -0.0581547 15.112 -0.0581547 14.8799 0.174464C14.6448 0.406469 14.6448 0.785165 14.8799 1.0184L17.9009 4.03937C7.9768 4.35792 0 12.5076 0 22.5071C0 32.7031 8.29848 41 18.4975 41C19.1102 41 19.729 40.9705 20.3435 40.9116C20.6725 40.8791 20.9126 40.5845 20.8813 40.2598C20.8481 39.929 20.5596 39.7037 20.2293 39.7221Z" fill="black"/>
<path d="M20 15C20 15.5523 19.5523 16 19 16C18.4477 16 18 15.5523 18 15C18 14.4477 18.4477 14 19 14C19.5523 14 20 14.4477 20 15Z" fill="black"/>
<path d="M19.0769 30C18.5674 30 18.1538 29.5968 18.1538 29.1V19.8H16.9231C16.4135 19.8 16 19.3968 16 18.9C16 18.4032 16.4135 18 16.9231 18H19.0769C19.5865 18 20 18.4032 20 18.9V29.1C20 29.5968 19.5865 30 19.0769 30Z" fill="black"/>
</svg>
