<svg width="28" height="27" viewBox="0 0 28 27" fill="none" xmlns="http://www.w3.org/2000/svg">
<path d="M27.8196 9.1698C27.6828 9.03764 27.4915 8.97497 27.3013 9H19.8734V5.77356C19.8734 2.58489 17.2438 0 14.0001 0C10.7563 0 8.12678 2.58489 8.12678 5.77356V9H0.698671C0.491357 9 0.28411 9 0.18042 9.1698C0.0411529 9.30137 -0.0234549 9.49183 0.00769172 9.67925L2.59888 23.6038C2.96087 25.5462 4.66706 26.9676 6.67565 27H21.3244C23.3387 26.9513 25.0413 25.5187 25.4011 23.5698L27.9923 9.67925C28.0235 9.49183 27.9588 9.30137 27.8196 9.1698ZM9.50867 5.77356C9.50867 3.33519 11.5195 1.35849 14 1.35849C16.4805 1.35849 18.4913 3.33519 18.4913 5.77356V9H9.50867V5.77356ZM24.0192 23.4C23.7865 24.6872 22.6542 25.629 21.3244 25.6415H6.67565C5.3458 25.629 4.21354 24.6872 3.98084 23.4L1.52786 10.3585H26.4721L24.0192 23.4Z" fill="#1D1D1D"/>
<path d="M19.1824 16.9811C19.564 16.9811 19.8734 16.677 19.8734 16.3019V14.2641C19.8734 13.889 19.564 13.5849 19.1824 13.5849C18.8007 13.5849 18.4914 13.889 18.4914 14.2641V16.3019C18.4913 16.677 18.8007 16.9811 19.1824 16.9811Z" fill="#1D1D1D"/>
<path d="M8.81769 16.9811C9.19932 16.9811 9.50867 16.677 9.50867 16.3019V14.2641C9.50867 13.889 9.19932 13.5849 8.81769 13.5849C8.43606 13.5849 8.12671 13.889 8.12671 14.2641V16.3019C8.12671 16.677 8.43606 16.9811 8.81769 16.9811Z" fill="#1D1D1D"/>
</svg>
