<svg width="35" height="35" viewBox="0 0 35 35" fill="none" xmlns="http://www.w3.org/2000/svg">
<path d="M35 17.5C35 27.165 27.165 35 17.5 35C7.83502 35 0 27.165 0 17.5C0 7.83502 7.83502 0 17.5 0C27.165 0 35 7.83502 35 17.5Z" fill="white"/>
<path d="M17.5 27C17.2295 27 16.9687 26.9015 16.7655 26.7224C15.9979 26.0475 15.2579 25.4132 14.605 24.8536L14.6017 24.8507C12.6875 23.2102 11.0346 21.7935 9.88446 20.3979C8.59882 18.8378 8 17.3585 8 15.7425C8 14.1724 8.53533 12.7239 9.50728 11.6637C10.4908 10.5909 11.8404 10 13.3078 10C14.4046 10 15.409 10.3487 16.2931 11.0364C16.7393 11.3835 17.1437 11.8083 17.5 12.3038C17.8565 11.8083 18.2607 11.3835 18.7071 11.0364C19.5912 10.3487 20.5956 10 21.6923 10C23.1596 10 24.5093 10.5909 25.4929 11.6637C26.4648 12.7239 27 14.1724 27 15.7425C27 17.3585 26.4013 18.8378 25.1157 20.3978C23.9656 21.7935 22.3128 23.2101 20.3989 24.8504C19.7448 25.4108 19.0037 26.0461 18.2344 26.7227C18.0313 26.9015 17.7703 27 17.5 27ZM13.3078 11.1193C12.1549 11.1193 11.0959 11.582 10.3254 12.4223C9.54352 13.2753 9.11285 14.4544 9.11285 15.7425C9.11285 17.1017 9.61513 18.3172 10.7413 19.6838C11.8298 21.0047 13.4488 22.3923 15.3234 23.9989L15.3269 24.0018C15.9823 24.5635 16.7252 25.2003 17.4984 25.8802C18.2763 25.199 19.0203 24.5612 19.677 23.9986C21.5514 22.392 23.1703 21.0047 24.2588 19.6838C25.3849 18.3172 25.8872 17.1017 25.8872 15.7425C25.8872 14.4544 25.4565 13.2753 24.6746 12.4223C23.9043 11.582 22.8451 11.1193 21.6923 11.1193C20.8478 11.1193 20.0724 11.3893 19.3878 11.9217C18.7777 12.3964 18.3526 12.9964 18.1035 13.4163C17.9753 13.6322 17.7498 13.761 17.5 13.761C17.2502 13.761 17.0247 13.6322 16.8965 13.4163C16.6475 12.9964 16.2225 12.3964 15.6122 11.9217C14.9276 11.3893 14.1522 11.1193 13.3078 11.1193Z" fill="white"/>
</svg>
