<svg width="23" height="24" viewBox="0 0 23 24" fill="none" xmlns="http://www.w3.org/2000/svg">
<path d="M22.7822 22.6943L16.8439 16.5969C18.3989 14.834 19.3544 12.5024 19.3544 9.93683C19.3537 4.44852 15.0214 0 9.67684 0C4.33229 0 0 4.44852 0 9.93683C0 15.4251 4.33229 19.8737 9.67684 19.8737C11.9861 19.8737 14.104 19.0402 15.7677 17.6546L21.729 23.7761C22.0195 24.0746 22.4911 24.0746 22.7816 23.7761C23.0727 23.4775 23.0727 22.9929 22.7822 22.6943ZM9.67684 18.3448C5.15476 18.3448 1.48892 14.5804 1.48892 9.93683C1.48892 5.29321 5.15476 1.52884 9.67684 1.52884C14.199 1.52884 17.8648 5.29321 17.8648 9.93683C17.8648 14.5804 14.199 18.3448 9.67684 18.3448Z" fill="#1D1D1D"/>
</svg>
