<svg width="24" height="27" viewBox="0 0 24 27" fill="none" xmlns="http://www.w3.org/2000/svg">
<path d="M11.8977 14.5484C11.9269 14.5484 11.9562 14.5484 11.9912 14.5484C12.0029 14.5484 12.0146 14.5484 12.0263 14.5484C12.0438 14.5484 12.0672 14.5484 12.0847 14.5484C13.7967 14.5204 15.1814 13.9445 16.2039 12.843C18.4535 10.4164 18.0795 6.25658 18.0386 5.8596C17.8925 2.87948 16.4201 1.45372 15.2048 0.788362C14.2992 0.290743 13.2416 0.0223649 12.0613 0H12.0204C12.0146 0 12.0029 0 11.9971 0H11.962C11.3134 0 10.0397 0.100642 8.81852 0.765997C7.59151 1.43135 6.09573 2.85711 5.94966 5.8596C5.90876 6.25658 5.53481 10.4164 7.78433 12.843C8.80099 13.9445 10.1858 14.5204 11.8977 14.5484ZM7.50971 5.99938C7.50971 5.98261 7.51555 5.96583 7.51555 5.95465C7.70837 1.94574 10.6824 1.51522 11.9562 1.51522H11.9795C11.9912 1.51522 12.0087 1.51522 12.0263 1.51522C13.6039 1.54877 16.2857 2.1638 16.4669 5.95465C16.4669 5.97142 16.4669 5.9882 16.4727 5.99938C16.4786 6.03852 16.8876 9.84055 15.0295 11.8422C14.2933 12.6362 13.3117 13.0275 12.0204 13.0387C12.0087 13.0387 12.0029 13.0387 11.9912 13.0387C11.9795 13.0387 11.9737 13.0387 11.962 13.0387C10.6766 13.0275 9.68911 12.6362 8.95875 11.8422C7.10655 9.85173 7.50387 6.03293 7.50971 5.99938Z" fill="#1D1D1D"/>
<path d="M23.9984 21.4479C23.9984 21.4423 23.9984 21.4367 23.9984 21.4311C23.9984 21.3864 23.9925 21.3417 23.9925 21.2914C23.9575 20.1843 23.8815 17.5956 21.3457 16.7681C21.3282 16.7625 21.3048 16.7569 21.2873 16.7513C18.6521 16.1083 16.461 14.6546 16.4377 14.6378C16.0812 14.3974 15.5904 14.4813 15.3392 14.8223C15.0879 15.1634 15.1756 15.6331 15.532 15.8735C15.6313 15.9406 17.9568 17.4893 20.8666 18.205C22.228 18.6691 22.3799 20.0613 22.4208 21.3361C22.4208 21.3864 22.4208 21.4311 22.4266 21.4759C22.4325 21.9791 22.3974 22.7563 22.3039 23.2036C21.3574 23.718 17.6471 25.496 12.0029 25.496C6.38203 25.496 2.64842 23.7124 1.69603 23.198C1.60254 22.7507 1.56164 21.9735 1.57333 21.4703C1.57333 21.4256 1.57917 21.3808 1.57917 21.3305C1.62007 20.0557 1.77199 18.6635 3.13338 18.1994C6.04314 17.4837 8.36862 15.9294 8.46795 15.8679C8.82436 15.6275 8.91201 15.1578 8.66076 14.8167C8.40952 14.4757 7.91871 14.3918 7.5623 14.6322C7.53893 14.649 5.35953 16.1027 2.71269 16.7457C2.68932 16.7513 2.67179 16.7569 2.65427 16.7625C0.118448 17.5956 0.0424906 20.1843 0.00743326 21.2858C0.00743326 21.3361 0.00743312 21.3808 0.00159023 21.4256C0.00159023 21.4311 0.00159023 21.4367 0.00159023 21.4423C-0.00425267 21.7331 -0.0100954 23.2259 0.299578 23.9752C0.358007 24.1205 0.463179 24.2435 0.603409 24.3274C0.778696 24.4392 4.97974 27 12.0087 27C19.0377 27 23.2388 24.4336 23.4141 24.3274C23.5485 24.2435 23.6595 24.1205 23.7179 23.9752C24.01 23.2315 24.0042 21.7387 23.9984 21.4479Z" fill="#1D1D1D"/>
</svg>
